<svg width="40" height="40" viewBox="0 0 40 40" fill="none" xmlns="http://www.w3.org/2000/svg">
  <defs>
    <linearGradient id="rt-tile" x1="0" y1="0" x2="40" y2="40" gradientUnits="userSpaceOnUse">
      <stop stop-color="#1E293B" />
      <stop offset="1" stop-color="#0F172A" />
    </linearGradient>
    <linearGradient id="rt-mark" x1="10" y1="8" x2="30" y2="32" gradientUnits="userSpaceOnUse">
      <stop stop-color="#F59E0B" />
      <stop offset="1" stop-color="#D97706" />
    </linearGradient>
  </defs>
  <rect x="0.5" y="0.5" width="39" height="39" rx="11" fill="url(#rt-tile)" />
  <rect x="0.5" y="0.5" width="39" height="39" rx="11" stroke="#334155" stroke-opacity="0.5" />
  <path d="M13 9.5H30V13H13V9.5Z" fill="url(#rt-mark)" />
  <rect x="26.4" y="13" width="2.2" height="6.5" fill="url(#rt-mark)" />
  <circle cx="27.5" cy="22" r="2.4" fill="#F59E0B" />
  <path d="M13 9.5H17.6V31.5H13V9.5Z" fill="#F8FAFC" />
  <path d="M17.6 15.5H21.5C24 15.5 25.6 17 25.6 19.2C25.6 21 24.6 22.2 23 22.7L26.2 27.5H22.9L20.1 23H17.6V15.5ZM17.6 17.8V20.8H21.2C22.2 20.8 22.9 20.2 22.9 19.3C22.9 18.4 22.2 17.8 21.2 17.8H17.6Z" fill="#F8FAFC" />
  <path d="M20.5 25.4L23.9 31.5H20.6L17.6 26.2L20.5 25.4Z" fill="#F8FAFC" />
</svg>
